# xmcd
#
# Track frame offsets: 
#        150
#        20774
#        41492
#        58018
#        76137
#        98167
#        112949
#        126524
#        140712
#        154057
#        175639
#        191610
#        205744
#        223349
#        240948
#        261057
#        279378
#        295755
#        312916
#        329486
#
# Disc length: 4623 seconds
#
# Revision: 1
# Processed by: cddbd v1.5.2PL0 Copyright (c) Steve Scherf et al.
# Submitted via: ExactAudioCopy v1.3
#
DISCID=23120d14
DTITLE=Various Artist - 100 Op 1 De Beste Belgen - CD4
DYEAR=2015
DGENRE=Pop-Folk
TTITLE0=Absynthe Minded - My Heroics, Part One
TTITLE1=Kommil Foo - Ruimtevaarder
TTITLE2=Zjef Vanuytsel - De Zotte Morgen
TTITLE3=Novastar - Wrong
TTITLE4=Hannelore Bedert - Altijd Nooit Meer
TTITLE5=Nacht Und Nebel - Beats Of Love
TTITLE6=Toy - Suspicion
TTITLE7=Luc Van Acker Feat. Anna Domino - Zanna
TTITLE8=Buurman - God, Ik En Marjon
TTITLE9=K's Choice - Not An Addict
TTITLE10=Hooverphonic - Eden
TTITLE11=Berntholer - My Suitor
TTITLE12=Isbells - Reunite
TTITLE13=Dirk Blanchart - Building An Empire
TTITLE14=Gorki - Ooit Was Ik Een Soldaat
TTITLE15=Lady Linn and Her Magnificent Seven - I Don't Wanna Dance
TTITLE16=Jo Lemaire - Je Suis Venue Te Dire Que Je M'En Vais
TTITLE17=Johan Verminnen - Brussel
TTITLE18=Raymond Van Het Groenewoud - Gelukkig Zijn
TTITLE19=Wim De Craene - Rozane
EXTD=
EXTT0=
EXTT1=
EXTT2=
EXTT3=
EXTT4=
EXTT5=
EXTT6=
EXTT7=
EXTT8=
EXTT9=
EXTT10=
EXTT11=
EXTT12=
EXTT13=
EXTT14=
EXTT15=
EXTT16=
EXTT17=
EXTT18=
EXTT19=
PLAYORDER=
